<?xml version="1.0" encoding="UTF-8" standalone="no"?>
<svg
   xmlns:dc="http://purl.org/dc/elements/1.1/"
   xmlns:cc="http://creativecommons.org/ns#"
   xmlns:rdf="http://www.w3.org/1999/02/22-rdf-syntax-ns#"
   xmlns:svg="http://www.w3.org/2000/svg"
   xmlns="http://www.w3.org/2000/svg"
   xmlns:sodipodi="http://sodipodi.sourceforge.net/DTD/sodipodi-0.dtd"
   xmlns:inkscape="http://www.inkscape.org/namespaces/inkscape"
   version="1.1"
   width="862"
   height="497"
   viewBox="0 0 1134 620"
   id="svg24"
   sodipodi:docname="russia_d.svg"
   inkscape:version="0.92.3 (2405546, 2018-03-11)">
  <metadata
     id="metadata28">
    <rdf:RDF>
      <cc:Work
         rdf:about="">
        <dc:format>image/svg+xml</dc:format>
        <dc:type
           rdf:resource="http://purl.org/dc/dcmitype/StillImage" />
      </cc:Work>
    </rdf:RDF>
  </metadata>
  <sodipodi:namedview
     id="namedview26"
     inkscape:zoom="7.0533643"
     inkscape:cx="77.243151"
     inkscape:cy="98.423068"
     inkscape:window-width="1920"
     inkscape:window-height="1017"
     inkscape:window-x="-8"
     inkscape:window-y="-8"
     inkscape:window-maximized="1"
     inkscape:current-layer="districts" />
  <desc
     id="desc2">Russian Map</desc>
  <defs
     id="defs4" />
  <g
     id="districts">
    <g
       id="g60"
       class="d01 district map-element">
      <path
         inkscape:connector-curvature="0"
         d="m 140.182,364.901 0.833,-3.333 1,-3.667 -2.5,-2.5 1.667,-1.166 -0.167,-2.834 1,-4 1.833,-4.333 1.334,-3.667 3.333,-1 1.167,-2.5 3.166,-2.666 2.834,-0.251 2.25,2.75 1,-2.833 h 2.333 l 1,-1.75 0.917,-2 0.333,-3.5 1.5,-1.5 0.252,-2.083 2.583,-2.167 1.001,2.166 1.511,1.51 h 2.908 l 1.455,1.454 2.533,-0.161 1.94,1.186 h 3.557 l 1.886,1.887 2.318,0.271 1.401,-1.405 h 2.802 l 1.778,-1.778 h 2.209 l 1.833,0.916 c 0,0 0.861,1.348 1.348,1.348 0.483,0 0.593,2.426 0.593,2.426 h 2.372 l 1.617,1.938 h 2.156 l 0.431,-1.396 1.4,1.396 c 0,0 2.264,1.078 2.694,1.078 0.434,0 2.371,1.078 2.371,1.078 l 1.509,0.859 1.94,0.756 2.695,-0.539 2.37,0.754 -0.861,2.805 v 3.343 l 2.054,-0.372 3.07,-0.294 1.754,1.757 4.166,2.852 1.606,-1.607 3.144,3.143 v 6.578 l 3.948,3.946 3.652,-1.606 4.094,-1.021 3.654,1.605 3.362,-1.605 2.191,4.681 4.313,0.805 3.29,3.289 1.169,3.216 6.14,3.216 2.268,3.289 1.534,-1.534 3.653,0.878 2.046,-3.218 3.874,3.437 -1.973,2.268 -0.585,7.896 h -4.678 l -1.975,2.117 -1.681,-1.683 -4.021,1.39 -2.596,2.598 -1.133,-1.135 h -3.142 l -1.828,-1.826 -1.169,-2.776 h -2.925 l -1.893,1.895 -5.116,1.313 -3.947,-0.877 h -3.36 l -1.316,3.36 H 237.9 l -2.34,-2.338 -1.898,1.897 -0.877,3.509 -2.12,2.119 -4.313,0.514 -3.652,1.17 -3.362,0.586 -2.046,2.048 -2.777,0.584 -1.889,1.899 v 3.045 l 1.605,1.101 1.101,1.099 v 1.606 l 0.591,1.521 -1.606,1.606 -2.026,0.508 -1.017,1.015 -1.563,1.563 h -1.902 v 1.309 l -1.479,1.48 -1.902,1.31 -1.604,-0.76 -1.902,2.154 -1.564,1.563 0.594,2.621 -0.594,4.396 1.354,2.453 -0.339,5.237 h -2.789 l -0.931,1.691 -3.298,2.026 -2.916,1.563 -1.647,1.646 -1.606,0.086 -2.346,1.063 1.335,3.427 -1.219,1.219 h -3.368 l -2.555,-1.394 -0.581,-1.858 -2.439,-0.465 -2.322,2.092 h -4.762 l -1.219,4.009 -3.894,3.891 h -4.298 l -1.51,1.511 h -2.322 l -1.163,-1.625 h -2.887 v -2.104 l -1.282,-1.281 -2.833,-1.334 v -3.5 l -2.182,-2.455 -0.485,-0.545 -1,-3.834 -2.5,-1.5 -2.666,-2.999 1,-3.5 -1,-5.167 -3.167,-2.333 -3.667,-2.833 -1.166,-3.834 -2.5,-2 -0.834,-2.333 2.167,-2.5 1.667,-3.667 v -3.5 l -1.834,-3.333 -1.833,-2.833 1.667,-1.333 1,-2.5 h 2 l 1.5,-1.334 1.166,-4.5 0.334,-2.666 -1.334,-3.334 -1.833,-1.833 -2.5,-0.333 -1.833,-2 -1.5,-2.167 -2.25,1.916 -1.75,-1.749 -1.5,-2.5 1.5,-2.667 3.166,-3.167 2.167,-2.5 0.833,-3 2.5,-0.166 1.834,2 1,2.5 3.333,1.166 z"
         id="path10" />
    </g>
    <g
       id="g57"
       class="d05 district map-element">
      <path
         inkscape:connector-curvature="0"
         d="m 311.018,511.831 h 2.705 3.213 l 1.944,-0.763 2.705,1.185 h 1.691 l 1.183,2.113 -0.845,2.112 -3.128,1.521 0.254,2.112 h 1.773 l 0.5,2.621 1.083,2.416 2.334,2.334 1.583,1.582 0.667,2.834 2.333,2.334 -2.333,3.166 -2.167,2.166 h -3.667 l -3.75,0.25 -1.916,-1.916 -1.334,-2.709 h -1.708 l -1.792,1.793 h -2.916 l -3.25,-3.25 -0.625,-1.875 -2.459,-2.459 v -4.25 l -2.083,-2.084 h -3.833 l -3.167,1.168 -1.167,-2.5 -3.166,-2.5 -2.834,-1.5 -3.833,1.834 -3.5,0.5 -2.833,-0.834 -2,-3.834 -2.834,-2.5 -2,3.334 h -2.166 v -2.666 l 2,-2 -1.334,-2.834 -1.666,-4.334 -0.667,-4.5 -2.5,-3 -4,-1.5 -1.166,-2.832 -2.167,-2.168 -4,0.668 h -2.334 v -3.168 l -1.166,-3.332 -4.084,-0.752 -2.083,2.084 -3.833,1.334 -3.334,-1.834 h -3.5 l -1.666,2.5 h -3.5 -3.834 l -0.833,1.834 -2.167,2.166 -0.333,3.166 -4.083,-0.748 -2.417,-2.418 v -3.334 l 1.084,-3.25 -1.751,-1.75 h -2.833 l -0.12,-3.34 -2.03,-2.033 -0.466,-2.496 h -2.382 l -1.565,-1.567 -0.697,-3.366 -2.381,-0.869 -1.219,1.219 -2.207,-2.09 3.02,-2.903 -0.465,-4.646 -3.949,-3.831 -3.368,0.114 v -1.976 l -2.207,-1.161 -3.716,-0.466 -1.045,-3.948 0.231,-2.904 1.219,-1.219 -1.335,-3.426 2.346,-1.063 1.606,-0.086 1.647,-1.646 2.916,-1.563 3.297,-2.026 0.932,-1.69 h 2.789 l 0.339,-5.238 -1.354,-2.453 0.594,-4.396 -0.594,-2.621 3.467,-3.72 1.605,0.761 1.902,-1.312 1.479,-1.479 v -1.311 h 1.902 l 2.579,-2.577 2.026,-0.51 1.606,-1.604 -0.591,-1.521 v -1.604 l -2.706,-2.197 v -3.043 l 1.889,-1.902 2.777,-0.584 2.046,-2.047 3.362,-0.586 3.652,-1.17 4.313,-0.512 2.12,-2.12 0.877,-3.508 1.898,-1.899 2.34,2.338 h 3.361 l 1.316,-3.359 h 3.361 l 3.946,0.877 5.116,-1.314 1.899,-1.898 h 2.925 l 1.169,2.775 1.827,1.828 h 3.143 l 1.133,1.133 2.596,-2.596 4.021,-1.391 1.681,1.684 1.975,-2.119 h 4.678 l 0.585,-7.896 1.973,-2.269 1.099,-1.096 v -3.07 l 2.338,-1.168 -3.654,-3.801 1.754,-1.608 3.157,1.403 5.929,-5.93 1.792,-1.541 1.25,0.417 3.167,3.75 -0.584,1.833 1.5,0.75 0.311,2.532 -2.047,2.048 v 3.359 l -3.218,0.729 v 2.192 l -2.19,2.19 v 2.484 l 1.753,1.754 v 2.482 l 0.729,2.635 -1.021,2.339 1.169,1.169 1.9,-2.339 1.17,-3.362 2.924,-0.729 3.069,1.461 1.899,1.898 2.631,-2.482 1.39,1.389 0.805,1.828 2.484,-0.292 1.534,-1.536 h 2.704 l 2.546,-1.005 v -2 l -1.687,-1.688 1.562,-3.063 3.375,1.875 1.188,-1.188 1.187,1.188 1.625,-1.625 2.125,0.75 0.875,1.375 -0.375,2.125 1.75,2.125 2.125,-0.75 3.625,1.625 2.375,2.375 2.625,-1.375 3,1.125 1.688,-1.688 1.687,0.563 1.188,1.188 1.687,-0.563 1,-2.125 h 1.75 l 3.876,2.625 3.75,2 4.25,1.625 5.75,0.875 v 2.625 l -3.375,1.75 v 3.375 l -1.875,4.625 -3.375,3 -2.5,3.75 -2.25,2.25 h -2.876 l -2.75,2.375 v 4.25 l 2.125,3.375 -1.125,3.75 -1.687,1.688 v 1.188 l 1.812,1.875 -2.062,2.063 -2.063,1.688 -2.875,-0.625 -3,2 0.125,1.625 1.313,1.313 -1.813,1.813 -1.25,1.25 -2,-3 h -2.25 l -1.75,2.875 -0.75,3.125 -2.75,1.375 h -3.25 l -1,-1 -1.125,2.25 v 2.873 l -1.312,1.313 -2.185,2.419 2.142,2.963 3.869,2.799 h 2.387 l 1.973,2.88 2.118,-2.117 0.676,2.789 -0.761,2.534 -2.029,3.722 v 2.026 l -3.762,0.89 -2.24,2.24 -3.466,-1.27 v -2.288 l -1.858,-1.858 -2.704,-1.354 -2.536,-0.763 -3.636,2.705 0.677,3.211 1.604,1.606 0.508,4.479 2.113,3.381 4.144,0.425 1.773,-1.187 4.06,1.271 1.183,3.636 v 3.211 h -1.944 l -1.184,-1.607 -2.789,0.254 v 1.188 l -2.579,0.887 -3.423,3.424 v 1.861 l -2.198,2.957 v 2.875 h -1.773 l -2.282,4.143 -0.423,2.451 -2.621,1.187 z"
         id="path12" />
    </g>
    <g
       id="g54"
       class="d06 district map-element">
      <path
         inkscape:connector-curvature="0"
         d="m 358.515,502.066 5.668,-0.166 3.833,1.166 h 2.833 l 3.167,1.668 3.333,-0.668 1.917,-1.916 h 1.75 l 4.333,2.25 h 4.5 l 3.667,-0.666 3,1.666 3.667,-1 h 4.166 l 2,-2.834 3.666,0.334 3.334,2 h 4.166 l 1.5,3 h 3 v -2 l 0.938,-1.938 1.687,-1.688 v -2.25 l 1.375,-0.25 1.75,-1.75 0.688,-1.75 v -2.938 l 2.375,-2.375 1.812,-1.813 3.188,-0.563 1.187,-1.188 v -2.25 l -2.5,-1.375 -0.812,-1.938 -1.563,-1.563 -2.25,-1.125 v -1.875 l 2.625,-1.25 -1.125,-3.375 0.25,-2.625 2,-2 1.5,-2.5 2.5,-1.75 2.625,2.625 -1.625,1.625 v 2 l 2.25,0.75 2.875,0.875 1.875,0.875 2.125,1.375 h 2.75 l 1.75,-1.625 2.875,1.5 2.5,0.75 h 4 l 3.313,-1.563 2.687,-2.688 1.502,-2.127 4.724,-2.767 0.516,-3.486 4.517,-3.285 5.542,-1.539 -0.309,-5.233 1.951,-4.82 1.946,-3.9 5.337,-0.819 4.004,1.744 h 5.748 l 1.438,2.155 5.337,0.615 4.157,-1.59 3.85,3.848 3.186,-0.819 4.411,2.258 1.229,-4.104 6.569,-2.771 6.155,4.52 3.801,-3.797 5.949,-2.565 2.467,-4.104 -4.725,-2.056 -4.208,-2.771 -0.02,-5.118 3.953,-3.917 1.417,-1.417 0.25,-3.75 2.417,-2.417 v -4.166 l -2.5,-3.5 1.667,-3.167 2.417,-3.084 2.25,-2.25 -1.167,-2.667 0.667,-3.5 -0.667,-4 -1.917,1.917 -1.917,-1.917 -3.833,-0.833 -0.833,-3.5 1.667,-1.667 -0.333,-3.833 -1.5,-3 -2,-2 h -2 l -1.833,-3.333 1.5,-1.167 v -3 l -1.167,-2 v -1.667 l 2.25,-2.083 -1.417,-2.917 -3.667,-2.167 v -2.333 l -1.5,-1.5 1.417,-2.5 -0.542,-3.042 -1.625,-1.625 0.083,-2.667 2.333,0.5 0.625,-2.042 1.792,-1.792 1.083,-3.167 -1.333,-2.5 h 1.25 l 0.917,-2.417 -1.583,-3.833 v -2.583 l -2.583,-0.5 0.083,-3.25 -2,1.917 -1,-1 -2,1.75 -1.083,-1.083 -0.417,-2.167 -3.167,-0.5 -2.083,-2.083 -0.458,-1.792 -1.458,-1.458 -0.167,-3.083 3.042,-2.292 2.458,-2.458 1.25,-2 h 3.333 v -5.75 l 0.333,-4 -3.583,-2 -0.958,-1.958 -0.792,0.792 -1.042,-2.208 0.875,-0.875 1.417,-1.417 3.167,-0.5 -0.333,-1.75 1.583,-1.583 -0.583,-2.167 -2.333,-1.25 -2.25,-0.583 -1.25,-1.25 -0.667,-1.833 h -1.583 l -0.167,-2 -1.917,1.917 0.25,1.917 0.667,2.166 -2,1.834 -2.667,-2.667 -1.667,-1.667 -3.5,2.334 1.167,3.666 2.5,2.5 v 1.334 l 3,1.5 1.917,1.916 1.083,2.584 v 2 l -2.833,-2.668 -2.583,-2.583 -2.583,1.583 -2,-1.666 -3.5,-2.666 v -3 -4.168 l 3,-2.999 0.667,-4.333 v -4.834 l 0.833,-3.5 h -2.667 l -1.167,2.5 1.167,2.834 -1.333,3.5 -2,3.166 h -3.5 l -4.167,4.167 -2.667,2.667 2.417,2.416 -0.417,3.416 1,3.168 1.167,3.666 -3.333,3.334 -1.5,4.332 -2.333,3.668 0.5,5.332 -2,2 0.5,3.168 h 3 l 1.333,1.832 2.5,-1.166 1.917,-1.916 2.333,2.333 4.083,1.417 1.333,1.333 2.167,1.999 1.667,3.334 -1.167,2.666 1,3.168 -1,2.166 -2.667,0.834 0.333,3 v 2 l 1.417,1.416 3.75,1.084 v 2.332 l -3.833,-0.832 -3.333,-3.334 v -2.5 l -0.167,-4 2.667,-2.667 -2,-5.167 -1.583,-1.583 -1.083,-3.249 -3.833,0.5 h -3.5 l -2.25,2.25 -2.25,2.25 0.333,3.166 0.833,3.5 -1,4 -2.083,2.084 -2.583,2.583 -1.5,1.5 v 3.5 l -3.333,1.833 -4.167,1.167 -1,1 h -2.167 c 0,0 -2.417,1.083 -1.75,1.75 0.667,0.667 -0.583,2.917 -0.583,2.917 h -3 l -2,-2.834 -2.833,0.167 -3.333,-2.333 -2.5,-1.167 -2.5,-3.833 v -3.167 l 2.5,0.833 1.75,1.75 2.75,1.75 2.5,-1.666 4.167,0.833 2.333,-1.333 2.5,-3.667 4.333,-4.333 3.667,-1 0.667,-6.167 3.667,-2.833 0.5,-2.667 -2.917,-2.917 -1.25,-4.416 1.333,-3.167 1.833,-6.333 1.167,-7.167 3.333,-5 0.833,-4.5 1,-5.667 -2.833,-2.5 1.333,-4.333 4.75,-4.75 0.75,-6.083 1.667,-1.667 -1.5,-5.667 h -3.5 l -2,-2 h -4 l -2,-2.833 -3.167,1.667 -1.833,4 -1.667,4 -2.167,4.833 -2.833,2.833 -1.25,1.25 -3.583,1.75 -3.333,1.167 -1.833,2.333 -1.167,3.334 2.167,0.666 v 2.5 l -1.5,2 -0.833,4 v 2.667 l -3.333,1.667 -1.583,1.582 1.75,3.584 3.167,2.167 -0.667,4.667 1.833,4.333 2.667,0.833 -3.833,3.5 v 3.5 l -3.333,2 -2.333,-3.666 v -3.334 l -2.833,-3.833 -2.667,-4.167 -3.917,-3.917 -1.31,-2.666 -1.356,2 -2.625,2.625 1.625,1.542 0.333,1.25 1.25,0.417 v 5.667 h -1.583 l -0.75,1.833 -1.333,0.667 -0.25,1.833 -0.254,1.249 3.333,1.667 v 2.167 l -3.083,1.25 2.583,2.583 -4,2 -3,3 h -3.167 l -1.167,3.667 h -5.667 l -5.333,1.167 -5.333,3 v 3.667 l -4.37,-0.167 -3.242,0.499 -1.75,2 -3.125,1.625 -3.125,3.125 -2.875,0.375 v -2.625 l -2.125,-0.75 -2.563,2.563 -3.438,3.438 -1.5,2.875 0.625,3.625 -4,2.5 -0.375,3 -3.375,2.125 -2.25,4.25 0.625,2.875 -1.375,2.625 v 2.25 l -4.125,4.125 -0.563,2.938 -1.563,1.563 -0.875,2.375 v 2.625 l -3.375,1.75 v 3.375 l -1.875,4.625 -3.375,3 -2.5,3.75 -2.25,2.25 h -2.875 l -2.75,2.375 v 4.25 l 2.125,3.375 -1.125,3.75 -1.687,1.688 v 1.188 l 1.812,1.875 -2.062,2.063 -2.063,1.688 -2.875,-0.625 -3,2 0.125,1.625 1.313,1.313 -1.813,1.813 -1.25,1.25 -2,-3 h -2.25 l -1.75,2.875 -0.75,3.125 -2.75,1.375 h -3.25 l -1,-1 -1.125,2.25 v 2.872 l -1.312,1.313 -2.186,2.419 2.143,2.963 3.868,2.799 h 2.388 l 1.973,2.879 2.118,-2.116 0.676,2.788 -0.761,2.535 -2.029,3.722 v 2.026 l -3.762,0.89 -2.24,2.239 -3.466,-1.268 v -2.289 l -1.859,-1.858 -2.704,-1.354 -2.536,-0.763 -3.636,2.705 0.677,3.211 1.605,1.606 0.507,4.479 2.114,3.381 4.143,0.425 1.774,-1.187 4.059,1.271 1.184,3.635 v 3.211 h -1.944 l -1.184,-1.606 -2.789,0.257 v 1.184 l -2.579,0.888 -3.423,3.424 v 1.861 l -2.198,2.957 v 2.875 h -1.774 l -2.281,4.145 -0.424,2.449 -2.62,1.187 -1.017,1.771 h 5.918 l 1.944,-0.763 2.705,1.185 h 1.689 l 1.185,2.113 -0.845,2.112 -3.128,1.521 0.254,2.112 h 1.774 l 0.5,2.621 1.333,-3.5 3.334,0.832 2.833,-0.832 1.167,-3 -1.167,-4.168 2.833,-1.166 4.334,-0.166 2.833,2.832 h 2.333 l 2.084,-2.082 -2.25,-2.25 -1.834,-1.834 -1.833,-1.166 2.333,-2.334 -1.166,-2.5 1.166,-3.666 h 3.5 l 3.834,2 2.666,2.332 3,-0.832 z m 164.094,-231.896 -1.664,1.664 -1.813,1.513 1.664,1.21 1.357,-1.21 h 2.118 l 1.966,-1.816 -1.813,-1.813 z m -5.444,-16.788 -1.361,1.21 0.907,1.36 1.813,-1.21 2.271,0.605 -0.604,-1.361 z m -6.958,6.05 -0.76,1.966 1.21,1.06 1.361,-1.664 z m -16.183,-9.831 -1.664,1.21 0.604,1.362 -1.21,1.663 0.303,1.059 2.723,0.756 2.571,-1.21 1.513,0.152 v -1.514 l -2.42,-0.604 1.21,-1.361 -1.358,-1.966 -1.663,0.605 z"
         id="path14" />
    </g>
    <g
       id="g51"
       class="d07 district map-element">
      <path
         inkscape:connector-curvature="0"
         d="m 696.483,385.289 -0.104,-1.978 -2.447,-0.156 -1.82,1.822 -2.289,-1.041 -3.02,1.146 -1.459,-1.77 h -1.563 l -1.354,1.354 h -2.707 l -1.771,-0.831 v -3.332 l 1.041,-1.041 v -2.188 l -0.834,-2.498 1.98,-3.123 1.145,-3.227 -3.438,-3.438 -0.938,-4.579 -2.914,-1.563 v -2.914 l 1.146,-1.041 -1.146,-1.146 v -2.705 l -3.121,-1.25 -0.939,0.938 -0.938,-2.812 1.563,-1.563 1.666,-2.706 2.498,-0.729 -0.938,-6.453 -0.729,-4.164 v -2.188 l -2.916,-5.311 -0.313,-5.518 -2.914,-1.979 -1.25,-2.915 -0.898,-2.243 v -1.375 l 3.5,-1.375 3.625,-5.125 2.5,-0.75 3.375,1 1,-2.25 v -2.75 l -1.875,-1.875 0.875,-3.25 2.5,-0.875 v -2.625 l -0.125,-3.375 2.75,-1.875 3.189,-3.188 0.688,-2.313 h 1.375 l -0.25,-3.375 h -2.625 l -2.375,-4.5 v -4.125 l -2.125,-2.125 -4.5,-3.25 v -1.75 l -3.375,-1.25 -1.184,-2.485 0.57,-3.351 -1.42,-1.418 -1.479,-2.233 -0.754,-1.931 1.145,-1.207 0.332,-1.6 -1.326,-1.057 -0.434,-2.927 h -2 l -2.5,0.167 0.168,2.667 -0.168,1.334 2,0.167 1.25,1.25 -1.582,3.083 -2.668,1 -2.832,2.333 c 0,0 -0.5,3 -2,3 -1.5,0 -4.168,0.833 -4.168,0.833 l -3,1.833 0.668,3.333 -3.001,1.334 0.832,-3 0.668,-4.333 2.751,-2.75 1.25,-3.75 4,-1 1,-5.167 2.5,-2.5 1,-4.667 v -1.667 l 3.332,-4 1.918,-1.917 1.582,-3.25 1.668,-2.333 v -3.333 l 1.916,-1.916 -2.084,-3.583 -3.332,-1.833 -1.334,-1.333 3.334,0.667 0.332,-3.5 -2.25,-2.25 -1.75,-1.75 -1.166,1.333 -2,-1.667 -1.666,-3.333 -1.918,-1.917 -2.582,1.25 -1.918,-1.917 -3.416,2.417 h -3.335 l -3.666,2 1.5,1.5 -0.834,2.833 c 0,0 -2.666,-1.167 -3.666,-1.167 -1,0 -0.834,-2.167 -0.834,-2.167 l 2.168,-2.167 -2.418,-2.417 h -3.25 l -1.041,1.042 -5.291,-0.292 2.166,-2.833 2.584,-2.583 -0.75,-3.417 -2.5,0.333 -3.334,-2 -2.666,2.833 -3,2.167 -2.5,6.167 -0.834,2.667 v 4 l 1.334,1 0.332,2.833 h -1.166 l -3.834,1.167 h -3.666 l 1,1.833 2,1.5 1.5,2 -3.334,-0.667 -3.332,0.667 -0.5,2.667 -5.169,-0.166 -2.083,2.083 v -2.417 l 1.583,-3 -3,0.5 -0.833,1.833 -3.667,0.5 -4.333,1 -1.667,1.667 3,1 -1,1.167 -4.5,1.333 -1.583,1.583 -6.25,0.917 -1.75,1.75 -4.583,1.75 -1.833,3.833 -4.667,-0.167 0.167,2.5 2.333,0.167 -2.333,1.833 -1.667,2.333 1.417,1.417 -0.917,2.083 1.333,1.5 -2,0.5 c 0,0 0,-2.5 -1.25,-1.25 -1.25,1.25 -1.917,1.917 -1.917,1.917 l 1.667,1.667 2,0.667 1.667,2.5 -1.667,1.667 h -3.166 l -4.333,1.833 h -6.5 v 1 l -4,-1.5 h -7.833 l -3.333,3 0.833,4.166 1.333,1.334 -1.5,3.334 -1,4 1.333,1.333 2.333,3.833 3.167,1.166 -0.167,2.334 1.833,2.5 -0.667,2.666 h -4.5 l -2.917,-2.916 -1.083,-1.084 1.167,-3.332 -4.333,-2.334 -2.25,-2.25 -2.75,0.416 -3.333,-0.666 0.167,2 h 1.585 l 0.666,1.833 1.418,1.417 2.082,0.417 2.334,1.25 0.582,2.167 -1.582,1.583 0.332,1.75 -3.166,0.5 -2.293,2.292 1.043,2.208 0.666,-0.916 1.084,2.083 3.582,2 -0.332,4 v 5.75 h -3.334 l -1.25,2 -2.457,2.458 -3.043,2.292 0.168,3.083 1.457,1.458 0.459,1.792 2.084,2.084 3.167,0.5 0.417,2.167 1.083,1.083 2,-1.75 c 0,0 0.729,1.271 1,1 0.271,-0.271 2,-1.917 2,-1.917 l -0.083,3.25 2.583,0.5 v 2.583 l 1.583,3.833 -0.917,2.417 h -1.25 l 1.333,2.5 -1.083,3.167 -1.792,1.791 -0.625,2.042 -2.333,-0.5 -0.083,2.667 1.625,1.625 0.541,3.041 -1.416,2.5 1.5,1.5 v 2.334 l 3.666,2.166 1.416,2.917 -2.251,2.083 v 1.666 l 1.169,2 v 3 l -1.5,1.168 1.831,3.332 h 2 l 2,2 1.5,3 0.335,3.834 -1.666,1.666 0.832,3.5 3.834,0.834 1.916,1.916 1.916,-1.916 0.668,4 -0.666,3.5 1.166,2.666 -2.25,2.25 -2.416,3.084 -1.668,3.167 2.5,3.5 v 4.166 l -2.416,2.417 -0.25,3.75 -1.418,1.416 -3.918,3.917 0.055,5.114 4.208,2.771 4.724,2.053 -2.465,4.104 -5.95,2.563 -3.8,3.8 -6.155,-4.518 -6.568,2.771 -1.23,4.104 -4.412,-2.258 -3.185,0.819 -3.85,-3.851 -4.156,1.59 -5.338,-0.612 -1.438,-2.155 h -5.746 l -4.004,-1.744 -5.339,0.819 -3.896,8.726 0.309,5.233 -5.543,1.539 -4.517,3.285 -0.516,3.487 -4.724,2.765 -1.5,2.125 -2.688,2.688 -3.313,1.563 h -4 l -2.5,-0.75 -2.875,-1.5 -1.125,1.625 h -3.375 l -2.125,-1.375 -1.875,-0.875 -2.875,-0.875 -2.25,-0.75 v -2 l 1.625,-1.625 -2.625,-2.625 -2.5,1.75 -1.158,1.931 -2.342,2.569 -0.25,2.625 1.125,3.375 -2.625,1.25 v 1.875 l 2.25,1.125 1.563,1.563 0.813,1.938 2.5,1.375 v 2.25 l -1.188,1.188 -3.188,0.563 -4.188,4.188 v 2.938 l -0.688,1.75 -1.75,1.75 -1.375,0.25 v 2.25 l -1.688,1.688 -0.938,1.938 v 2 l 2.5,1.168 1.333,4.166 -0.833,2.334 v 3.166 l -2.084,2.084 0.917,2.916 3.667,1 3.333,-2 2.417,2.416 -1.083,3.918 3.333,1 1.833,-1.834 3,1.834 h 3.334 v 2.332 l -4,1.834 -1,4.5 h 2.833 l 3.5,-1.666 1.833,2.666 4,-2.166 4.667,-1.334 2.75,-2.75 2.583,-0.084 3.5,-0.166 2.5,-2.5 h 3 l 0.834,2.334 -2,2.666 h -2.334 v 3 l 2.834,1.166 2.083,2.084 1.917,4.084 1.833,1.831 2.833,2.834 2,6.666 v 5.5 l 2.667,2.5 v 4 l 2.833,5 0.834,4.334 1.166,3.834 2.167,4.332 3.667,-0.666 1.833,-3.834 2.667,-0.832 1.833,2.166 v 2.5 l 1.833,1.832 2.001,2 3.666,-0.666 1.667,1.668 4.166,-0.668 2.084,-2.082 h 4.25 l 2.041,2.041 3.125,1.375 2.334,2.166 0.666,4 2.834,1.834 1.333,3 3.5,2.166 v 4 l 4.5,1.166 4,1.334 4.333,-1.666 2.584,-2.584 0.916,3.416 1.834,3.334 1.5,2.5 4.833,0.834 2.167,-2.168 4.166,-2.332 5,0.166 2.751,-2.75 3.916,-0.916 0.667,-3.5 h 3.333 l 3.334,-3.334 5.5,-3.5 h 4.333 l 1.167,-3.5 h 3.666 l 2.917,-2.916 3.583,1.582 2.834,2.834 4.5,-1.832 3.833,1.166 3.167,3.166 2.666,2.666 4.834,1.669 3.333,1 4.667,-0.834 4.5,1.168 h 4.833 3.167 l 3.75,-3.75 3.916,-2.584 v -4 l -2.916,-2.918 v -3.748 l -2.084,-2.5 0.668,-4.334 2.25,-2.25 2.082,-4.25 2.584,-2.584 1.916,-1.916 3.834,2.834 h 6.5 l 3.25,3.248 4.75,-1.248 h 4.166 l 4.334,1.666 3.084,3.082 2.416,5.084 2.584,2.584 4.082,1.75 6,0.5 4.168,-1.169 4.332,-1 3.916,-3.916 h 4.752 l 7.666,-1.084 2.334,1.5 5.832,0.834 h 6.334 l 2.332,2.334 1.334,2.5 4.5,1.5 5,-0.668 h 6.834 l 4.834,-1.5 h 5.332 l 2.084,-2.082 4.084,-4.084 5.332,-2.5 3.834,-2.666 2.916,-2.918 1.418,-4.916 6,-6 4.166,-1.834 3.166,1.168 3.5,1.832 4.668,-2.666 3.332,-2 4.5,0.834 6.166,0.5 5.5,-2 3.25,-3.25 2.25,-5.25 3.5,-1 v -4.668 l -1.5,-1.5 -2.5,-4.832 1.834,-4.668 v -4.5 l 1,-7.166 1.334,-2.834 -1.334,-5.332 -2.334,-2.334 -2.082,-2.086 -2.584,2.086 -1.834,-2.336 1.334,-3.33 1.834,-5.5 2.582,-2.586 5.25,-3.084 -2.414,-4.162 -1.084,-2.17 h -2.834 l -0.832,-3.58 -1.418,-2.17 2.5,-1.5 v -1.164 h -1.332 l -2.25,-2.416 -1.834,-0.25 0.416,-4.25 -1.082,-1.918 -1.168,-3.25 -2.666,-1.332 -1.916,2.666 -2,-0.75 -0.168,-2.836 -1.332,-1.33 -1.959,-0.545 -2.041,2.045 -1,2.5 -3.418,-0.92 -1.082,-2.08 2,-2.5 -1.168,-1.92 -2.25,0.75 -2.916,-0.75 -2.01,-2.026 -0.039,-2.009 -2.705,-0.729 v -2.914 l -2.498,-0.834 -2.604,-3.437 -3.645,-1.354 -0.781,-3.801 -1.717,-1.718 0.57,-1.821 -4.734,-4.736 -1.355,-3.746 -2.082,-0.207 v -2.396 l -2.236,-2.445 -1.82,-1.821 h -2.656 v 2.551 l -2.342,2.344 -3.645,-0.521 v -2.396 l -1.563,-1.354 v -3.019 l -3.229,-0.417 -3.748,-1.771 -3.539,0.418 -3.539,-0.521 -1.979,2.394 -0.988,3.279 -2.342,2.342 0.938,3.229 -1.248,3.747 -3.123,3.123 v 5.83 l -4.373,3.019 v 3.438 l -1.873,-2.604 v -2.916 l -2.188,-2.187 -2.082,0.938 -0.521,2.705 -5.52,2.082 h -2.598 l -1.041,3.123 -1.666,2.498 -3.592,0.26 -4.008,-4.006 -0.418,-8.328 0.521,-4.996 v -4.688 l 0.625,-4.162 v -4.063 l -2.916,-1.248 -2.082,-0.729 -0.313,-1.979 -0.963,-2.264 -1.898,-1.9 v -2.236 l 1.303,-1.303 0.363,-3.068 -1.82,-1.82 h -2.395 l -2.604,-1.249 v -2.396 l 1.041,-1.041 -1.146,-1.146 -0.938,-3.643 -2.082,-3.748 -2.498,-1.771 -2.813,0.834 -2.707,0.207 v -3.227 l 2.236,-0.625 v -2.137 z m -56.048,-192.256 -0.604,0.908 1.358,0.907 0.604,-1.06 z m -6.504,-13.461 -1.514,0.907 2.118,1.059 1.512,1.059 1.664,-0.453 -0.454,-1.966 -1.664,0.453 z m -14.823,-7.412 v -2.116 l 0.15,-3.782 -1.062,-2.117 -1.513,0.151 -2.117,2.57 0.15,2.27 -0.907,1.513 0.604,4.084 -1.814,1.815 0.15,4.083 -0.907,3.479 -0.757,3.479 1.358,0.756 2.874,-2.27 1.664,-1.058 3.781,-1.966 3.024,-0.304 3.78,-2.873 1.813,-3.479 -1.21,-3.025 -1.36,-2.269 -1.809,0.757 -1.814,-3.177 -1.36,-1.361 -1.662,1.966 z m -13.613,-16.184 -1.361,1.664 -1.21,2.269 -1.063,-0.454 0.756,-2.874 v -3.024 l -3.323,1.059 c 0,0 -1.97,0.454 -2.42,0.605 -0.454,0.15 -2.727,0.908 -2.727,0.908 l -1.06,2.269 -0.604,1.966 -1.357,1.664 0.453,1.966 -2.57,1.967 1.21,1.059 1.813,-0.605 1.517,2.117 0.147,1.966 1.36,1.664 3.479,0.303 0.453,1.966 2.422,-1.512 1.209,1.966 3.326,1.21 3.181,-1.513 1.513,-2.118 -1.21,-2.42 -1.967,-2.724 1.514,-1.059 0.604,-2.571 -0.759,-2.874 0.307,-2.874 z m -2.722,46.284 -1.514,1.813 -1.966,0.454 1.813,1.361 1.814,-1.815 z m -25.26,-0.605 -0.756,1.209 1.059,0.908 1.361,-1.967 z m -15.578,41.442 -1.813,0.908 c 0,0 0.756,2.269 0.756,1.966 0,-0.303 1.357,-0.605 1.357,-0.605 z m -13.008,-13.612 -1.664,1.36 0.907,1.815 1.513,-0.303 z m -0.606,19.814 -0.302,1.663 h 2.57 l 1.359,1.36 0.15,-2.269 -1.514,-0.302 z m -8.772,-89.693 -0.907,0.908 1.06,0.604 1.663,1.21 0.454,-1.513 z m -9.226,105.422 -1.059,1.361 0.604,1.814 1.061,1.362 1.513,-1.663 0.604,-1.967 -1.36,-1.362 z m 21.943,-125.002 -1.25,0.25 -0.813,0.813 1.25,1.25 1.688,-0.563 1,-1 z m 28.624,-2.5 -1.125,1.125 0.875,0.875 0.938,0.938 1.937,-1.813 v -1.25 z m 12,-1.625 -0.375,2.5 -2.25,1 -3.375,2.25 v 3.125 l 1.375,1.375 -1.812,1.813 -1.188,2.313 1.625,2.25 0.625,2.25 2.875,2.5 2.625,-2.5 h 1.75 l 2.625,-1.5 3.125,-1 -0.875,-3 v -3.75 l 1.875,-1.625 -1.562,-1.563 -3.188,-3.188 -1.125,-2.5 z m -7.375,20.75 -2.125,-0.25 0.375,2.75 v 1.75 l 2.75,0.75 1.125,1.125 1.688,-1.688 0.937,-2.438 -1.625,-1.25 z m -33.374,64 -0.813,0.813 1.063,0.938 1.75,-0.5 z"
         id="path16" />
    </g>
    <g
       id="g48"
       class="d08 district map-element">
      <path
         inkscape:connector-curvature="0"
         d="m 808.391,456.705 -2.701,-0.724 v -2.914 l -2.498,-0.834 -2.604,-3.438 -3.646,-1.353 -0.775,-3.801 -1.723,-1.72 0.572,-1.819 -2.551,-2.554 -2.189,-2.187 -1.354,-3.748 -2.082,-0.208 v -2.396 l -2.236,-2.444 -1.822,-1.821 h -2.652 v 2.553 l -2.342,2.342 -3.646,-0.521 v -2.396 l -1.563,-1.354 v -3.021 l -3.229,-0.418 -3.748,-1.771 -3.539,0.417 -3.539,-0.521 -1.979,2.396 -0.988,3.278 -2.344,2.343 0.938,3.229 -1.248,3.746 -3.123,3.123 V 444 l -4.369,3.021 v 3.437 l -1.873,-2.603 v -2.916 l -2.188,-2.188 -2.082,0.938 -0.521,2.705 -5.521,2.082 h -2.602 l -1.041,3.123 -1.666,2.498 -3.594,0.26 -4.01,-4.006 -0.416,-8.328 0.521,-4.996 v -4.687 l 0.625,-4.164 v -4.062 l -2.916,-1.249 -2.082,-0.729 -0.313,-1.979 -0.965,-2.265 -1.895,-1.899 v -2.237 l 1.301,-1.302 0.363,-3.069 -1.82,-1.819 h -2.396 l -2.604,-1.249 v -2.396 l 1.041,-1.041 -1.146,-1.146 -0.938,-3.646 -2.082,-3.748 -2.498,-1.771 -2.811,0.833 -2.707,0.208 v -3.228 l 2.234,-0.625 v -2.138 l -2.342,-2.342 -0.104,-1.979 -2.445,-0.154 -1.822,1.82 -2.289,-1.041 -3.02,1.146 -1.457,-1.771 h -1.564 l -1.354,1.354 h -2.699 l -1.771,-0.832 v -3.332 l 1.041,-1.041 v -2.188 l -0.834,-2.496 1.98,-3.123 1.145,-3.229 -3.438,-3.436 -0.938,-4.581 -2.916,-1.563 v -2.914 l 1.146,-1.041 -1.146,-1.146 v -2.707 l -3.121,-1.25 -0.938,0.938 -0.939,-2.813 1.564,-1.563 1.664,-2.707 2.5,-0.729 -0.939,-6.455 -0.729,-4.164 v -2.188 l -2.914,-5.308 -0.314,-5.518 -2.914,-1.979 -1.25,-2.915 -0.898,-2.243 v -1.375 l 3.5,-1.375 3.625,-5.125 2.5,-0.75 3.375,1 1,-2.25 v -2.75 l -1.875,-1.875 0.875,-3.25 2.5,-0.875 -0.125,-6 2.75,-1.875 3.188,-3.188 0.689,-2.313 h 1.375 l -0.25,-3.375 h -2.625 l -2.375,-4.5 v -4.125 l -2.125,-2.125 -4.5,-3.25 v -1.75 l -3.375,-1.25 -1.186,-2.486 0.572,-3.35 -1.418,-1.418 -1.479,-2.233 -0.754,-1.931 1.145,-1.207 0.332,-1.6 -1.326,-1.057 -0.436,-2.927 2.834,0.667 3.334,1.333 0.666,-2 2.084,-2.917 1.75,1.75 v 3.333 l 2,2.833 h 2.332 l -2.332,-2.167 1.582,-1.587 3.084,-3.083 4.166,-2.167 6.334,-1.167 5,-1.5 1.25,1.917 -1.166,1.167 2.75,2.75 h 5.166 l 0.166,-1.333 0.5,-1.833 2,3.167 3.5,-1.333 3.5,-3 c 0,0 3.668,-0.667 4.5,-0.667 0.834,0 0,-3 0,-3 l -0.5,-3.333 -2.5,-3.833 0.668,-3.833 0.5,-2 2,2 2.082,-1.583 1.75,1.75 2.668,1.833 0.666,-2 1.334,-0.333 1.332,1.5 1.334,-1 c 0,0 -0.166,-3.083 1.084,-3.083 1.25,0 1.582,-1.583 1.582,-1.583 l 3.668,2.833 1.166,-1.167 4,1.333 -1.334,4.083 h 1.916 l 1.918,1.917 v 3.167 l 3.166,-2 1.668,1.667 v 3.667 l -2.168,0.667 -1.332,1.333 2.332,2.334 c 0,0 1.834,-0.834 1.834,-1.667 0,-0.833 1.5,1.5 1.5,1.5 v 2.667 l 3.416,-0.084 3.25,3.25 2.5,1.667 3.5,0.667 1.5,-1.5 3.834,2 0.334,-3.167 -1.668,-5.5 -1,-2.5 v -2.333 l -2.166,-2.167 v -3 l 4.166,0.5 2.334,2.333 3.666,-1 h 4.168 l -0.834,-4.333 2.334,-4.333 4.332,-1 3.168,-0.167 3.666,1 v -2.5 l -3.916,-1.75 1.416,-1.417 1.834,-2 3.166,0.167 2.5,-2.5 -1.166,-0.667 -2.5,-2.5 -2.834,-1.5 v -3.667 l -1.166,-1 -1.668,4.333 -2,-1.333 v -3.5 l 3.668,-3.333 -0.5,-2.333 -3.5,-2.167 2.166,-2.167 h 3.166 l 4.668,-2.333 1.332,-3.833 6.168,-2.333 4.832,-2.167 c 0,0 0.668,0.667 0.668,1.667 0,1 -3.168,2.167 -3.168,2.167 l -1.166,4.5 2.834,-1.333 2.5,-2.5 3.166,1 -0.834,6.5 2.834,-2.667 v -3.167 l -1,-5.333 0.666,-2.333 1.5,-4.167 3.5,-1.667 5,-2.167 3,2.167 c 0,0 -1.416,1.917 -2.5,3 -1.082,1.083 1.168,1.833 1.168,1.833 h 3.666 l 2.334,-2.667 c 0,0 2.666,2.833 3.166,3.333 0.5,0.5 -0.5,-3.833 -0.5,-3.833 l 4.5,-2.5 3.166,1.667 3.5,-0.166 3.168,-3.167 3.332,-4.167 v -4.833 l 4.168,-6.167 3.5,-3.5 3.166,-3.834 5.5,-0.833 4.584,-0.25 2.25,2.25 4.666,4.667 4.166,-1.833 3,-2.417 h 3.25 l -1.582,-1.583 v -2.334 l 3.166,-3.167 v -5.5 l 1.5,-2.833 h 2.5 l 2.166,-2.167 v -3.333 l 4.168,-3 1,-4 -1.668,-1.667 0.668,-2 -2.334,-3.333 1.834,-3.333 1.75,-1.75 3.166,3.167 -2.416,2.417 2.5,2.5 h 3.832 l 2.668,-1 3.666,-1.667 3.334,-0.833 0.832,-2.667 -1,-2.667 -1.832,-0.333 -5.668,-2.5 -4.166,0.667 -1,-2.333 h -3.334 v -1.817 l 0.834,-3.167 3,-1.5 0.334,-3.5 2.666,-1.5 h 2.334 l -1,-2.833 1,-3 2.832,-4.167 1.334,-4.833 5.084,-4.917 5.666,-5.667 2.584,-2.584 5,-2.167 3.582,-2.083 3.334,-3.333 3.416,-3.417 4.168,-1.667 3,-4.333 5.666,-1.666 3,-3.167 3.666,-1.667 2.334,-1.333 2.666,2.667 3.834,-1.167 3.416,2.583 2.25,-2.25 4,-2.167 v -2 l -4,0.833 -4.666,-0.333 -3,-0.833 1,-3 3.166,-2.167 -2.666,-0.667 v -1.5 l 1.834,0.167 0.332,-3 1.668,-2.333 2.332,-2.333 4,-1.5 h 1.168 l 3,-4.167 c 0,0 2.832,-0.833 3.832,-1.833 1,-1 0,2.833 0,2.833 l 2.168,1.833 1.666,1.667 -1.834,3.833 c 0,0 2.5,0 3.5,-1 1,-1 0,2 0,2 v 3.5 l -3.832,2.5 3,0.5 1.832,-1.833 3.918,1.5 v -1.75 l 3.082,3.083 2.168,3.333 1.832,-0.5 1.834,-2.333 v 2.167 l 1.166,2.667 h -3.5 v 1.333 l 2.834,0.833 -1.5,4.333 -3.834,0.333 -3.5,3.833 -1.832,4 -3.5,1.167 -2.5,-1 h -3.168 l -2.832,4.167 1.25,2.5 v 4.25 l -2.75,2.75 -2.168,-1.667 -2.166,1.667 h -3.166 l -1.834,-1.5 -1.666,-1 -0.25,1.583 1.25,1.25 -1.5,0.667 -1,1 2.916,0.5 v 2.25 l 2.25,2.25 3.666,-1 h 2.5 l 0.178,3.175 1.5,-1.5 2.584,2.584 2.75,2.75 1.332,4.833 0.668,3.833 -2.668,4.333 h -2.5 l -3.5,1.5 -1.166,2.667 2.834,-1.166 h 1.832 l -2.666,3.167 1.666,1.665 2.168,-0.833 V 96.4 l 2,-1.5 3.582,-0.083 2.084,-2.083 1,-1.667 2.5,0.167 2,-0.333 3.666,-0.167 v 2.333 h 3 l 0.834,-1.583 h 2.916 l 1.75,-1.75 2.168,-0.333 1.832,1.5 2.668,-2 1.25,2.917 2.416,2.417 v 3.5 l -3.334,1.333 -2.166,4.667 h -3.5 l -1,1.5 3.916,2.583 -1.25,1.25 2.834,4.333 1.166,5.333 v 6 l 1,4.667 1.668,4 0.834,5.333 1.666,5.167 3.166,2.833 v 4.833 l 1.668,6.667 2.832,3.167 1.834,1.834 -2.834,2.5 -3,-1.5 -4.166,1.333 -2.166,5 -3.5,5 1.832,1.833 -1.332,4.666 v 2.5 l 2.832,4.333 v 2.667 l -3.166,-1.5 -2.334,-2.333 -2,0.167 1.834,4.833 v 3.167 l 3.082,1.417 -3.082,3.083 h -2 v 4.333 l -1.834,1.833 2.5,4.167 2,2 2.334,2.333 3.166,3.167 0.666,4.667 0.5,3.667 4.584,2.416 2.75,2.75 h 4.666 l -1.25,-2.833 v -1.417 l 1.584,-1.583 1.168,-2.5 4.332,4.333 0.834,3.834 4.332,3 4.293,0.958 1.707,-1.708 h 2.75 l 3.25,3.25 -1.332,3.167 -3.334,1 1,4 3.5,5.833 3.084,0.75 2.416,2.417 5.666,-0.667 3.334,2.667 1.166,3 -2,1.333 -2.832,1.833 -1.668,3.667 1.168,6.667 3.332,5.166 2.918,1.083 1.416,1.417 4.834,1.167 v 2 l -3.668,0.5 v 3 l -1.332,3 1.666,6 2.832,1.167 4.334,4.333 3.168,3 0.666,5.333 1.666,7 0.834,4.5 v 3.334 l -1.834,-2.5 h -4.832 l -3.084,-1.584 -2.416,-2.416 h -3.334 l -3,-3 -5.834,-2.667 -5.5,-2.333 -6.332,-3.334 -1.834,-2.5 -3,-2 -3.334,-0.666 -7.166,-2.167 -4.666,-2.5 -4.5,-3 c -0.75,-0.75 -2.168,-4 -2.168,-4 l -4.836,-4.824 -3.332,-3.5 v -3.5 l -2.332,-2.334 -0.5,-3.834 -2.834,-4 -3.084,-0.666 v -1.417 l 1.418,-1.417 1.166,-2.5 -1.582,-2.75 1.5,-1.5 1.25,-1.25 -1.668,-5 -0.832,-5.333 -2,-6.167 -3.168,-4.167 -1.332,-5.5 -1.5,-5.167 -1.668,-4.167 -2,-6.167 -2,-1.667 -0.166,-3.333 1.166,-4 v -2.333 -2.833 l -2,-2 -2.166,-4.167 h -2.166 l -2.084,-0.75 -1.916,-1.917 -2.334,-3 -3.5,-2.167 v -3.833 l 3.166,-2.999 -1.084,-1.084 -2.582,2.583 -3.666,2 v 3.5 l -1,2.667 1.998,1.833 2.918,2.917 2.75,2.75 h 3.334 l -0.334,2.167 -1.5,-0.167 -1.582,2.247 2.084,2.08 v 5.333 l 1.668,4 0.332,6.333 -1.166,3.834 -1.334,-3.333 -3,-1.5 0.002,4.167 -2.5,-2.5 -1.668,-1.667 -1.334,-2.833 -4.666,-4.333 1.334,3.667 -1.334,4 h -4.5 v 2.667 l -1.5,5.5 -1.834,2.167 0.168,7.333 3,2 -0.5,4.667 3,4.667 v 5 l 0.916,6.583 2.75,2.75 v 3 l 2.334,2.334 2.166,-0.334 1.916,-1.75 1.418,-1.416 h 2.5 l -0.168,3.166 -2.666,0.834 v 4.5 l -5,0.833 1.166,5.833 -0.5,2.5 -3.166,1.332 v 3.5 l -1.166,3.166 c 0,0 -3.918,0.917 -3.168,0.167 0.75,-0.75 -1.5,-1.5 -1.5,-1.5 v -2.167 l 0.668,-2.166 2.75,-0.917 -1.25,-1.25 -3,1.167 -3.168,0.5 v 1.5 l -4.666,2.166 -2.334,2.834 -2.666,0.666 -2.166,2.167 -0.834,2.5 0.832,3.167 1.834,1.833 -2.166,2.333 -3.5,-1.333 1.082,3.583 -2.582,2.584 -2.334,2.166 h -2 l -2,1.834 1.334,2.166 1,1 -2.834,1.834 h -3.834 l -3.75,3.749 -2.416,2.417 -2.668,4.5 -2.832,2.834 -2.834,5.666 -0.5,5.5 2.668,5.334 -2.5,2.5 -0.834,5.333 1.5,3.833 2.334,2.335 -2,3.332 v 4.5 6 l -1,4.168 v 5.665 l 1.666,1.835 v 4 4.5 l -1.5,5.665 v 4.667 l -2.5,4.167 v 4.166 l -1.334,3.667 1.5,3.375 h 2.543 l 1.957,-1.958 h 2.75 l 2.168,-2.168 2.416,-2.416 1.668,1.667 2,1 v 2.167 l 1.584,2.916 2,2 1.75,-1.75 v -2.666 l -2.334,-1 v -2.5 l 1.834,-2 v 1.666 l 2,1.5 1,-0.333 1,1 v 3 2.167 l 3.332,-1.334 v -1.666 l 1.834,-2.5 1.166,-1 1.834,1.333 0.416,-2.75 -1.582,-1.583 -1.5,-2.834 -1.834,-3.333 3,-1.666 1.834,-1.834 3.666,-0.833 h 4.334 l 3.582,0.417 1.584,1.583 c 0,0 3.834,-0.667 4.666,-0.667 0.834,0 3.166,-1.001 3.166,-1.001 l 2.084,2.084 -1.584,1.584 -1.166,1.166 -1,1.834 h 2.834 3 l 0.666,2.166 2.5,2.5 3.084,-0.416 1.584,1.583 1.666,3.167 0.5,6.333 2.166,6.667 3.416,4.916 4.25,4.25 1.668,1.668 0.832,2.832 3.334,3.334 2.334,4 0.834,2.334 3.082,4.75 2.584,2.582 v 7 l -1,6 1.834,5.999 -0.168,6.166 1.834,4.834 1.332,5.334 1,4.832 1,6.5 v 6.334 l -1,3.334 v 6.5 8 l -1,6 1,6.166 -0.332,8 v 3.834 l -3.334,5.5 -2.166,4.666 -2.5,4.668 h -2.168 l -4.166,1.666 -3.5,2 -2.416,-1 v -2.25 l -1.25,-1.25 -1.252,2.834 v 3.082 l -1.416,-1.416 -2.166,-2.166 v 1.666 l -0.666,4.166 0.666,2.834 -0.916,3.25 -1.418,1.416 v 1.668 2.666 l -3.166,-0.166 -1.334,-1.334 1.168,-3.834 2,-4 v -3.331 l -1.75,-3.919 -3.584,-3.581 -1.834,-1.834 -1.5,-3.834 -3.166,-3.166 -3,-1 -0.084,-3.25 2.084,-2.084 1.834,-1.832 v -3.334 l 2.332,-2.334 2.668,-1.332 2.75,0.916 2.416,-2.416 1.5,-3 -2.666,-4.168 1.332,-3.5 -1.666,-3.666 -0.334,-3.834 -2.332,-3.166 0.666,-2.666 -1.836,-3.167 -0.834,-3.665 -3.332,-3.5 2.5,-2.5 v -3.668 l -2.084,-2.082 -2.414,-2.42 -0.666,-2.166 h -2.834 v 0 l -4,2.166 -1,3.334 -2.666,4.334 -3,3.832 1.334,4.168 -3.5,2.832 -3.5,2 -3,1 -0.834,3 h -3.166 l -3.168,-1.832 -2.332,-0.834 v -3.834 l -2.668,-2.332 -2.164,-2.168 -3.586,-0.916 -1.916,1.916 -3.834,-1 -3.166,-0.832 -4.834,0.666 h -4.5 l -1.832,1.834 -5,1.832 -5,-1 -2.084,-4.082 -2.416,-2.418 c 0,0 -2.834,-1.666 -2.834,-2.334 0,-0.669 -3.166,-3.166 -3.166,-3.166 l -4,-0.666 -1.668,-4 -3.834,-3 -2.666,-2.666 -3.666,-1 -1.334,-3.5 -3.334,-1.5 -2,-2 -6.666,-0.668 h -3.5 l -4,2.168 -5,-0.834 -3.834,1.334 h -4.166 l -5.668,4.166 -2.666,2.666 -2.414,-4.164 -1.084,-2.168 h -2.834 l -0.832,-3.582 -1.418,-2.168 2.5,-1.5 v -1.166 h -1.332 l -2.25,-2.416 -1.834,-0.25 0.416,-4.25 -1.082,-1.918 -1.168,-3.25 -2.666,-1.332 -1.916,2.666 -2,-0.75 -0.168,-2.834 -1.332,-1.332 -1.959,-0.543 -2.041,2.043 -1,2.5 -3.418,-0.918 -1.082,-2.082 2,-2.5 -1.168,-1.918 -2.25,0.75 -2.916,-0.75 -2.012,-2.029 z m 175.44,-68.993 -1.155,0.288 -0.863,-2.45 v -2.164 l 3.75,1.013 1.873,0.862 1.01,2.311 2.021,2.021 3.604,0.721 0.865,2.311 4.037,2.596 h 2.162 l 1.729,2.451 1.443,3.896 2.234,2.232 4.254,4.397 2.736,0.722 3.75,1.441 3.604,3.173 4.902,2.739 3.172,2.738 4.184,2.164 3.605,2.16 2.309,1.875 4.035,1.588 -0.574,1.875 -1.438,1.438 -2.74,0.862 h -2.164 l 0.578,3.027 -0.578,2.163 v 1.729 l 2.451,3.75 c 0,0 2.311,2.594 1.875,3.023 -0.438,0.437 0.146,4.475 0.146,4.475 l 1.875,1.875 2.883,2.885 2.451,1.587 h 3.75 l 2.162,2.161 h 2.451 l 1.299,2.74 3.172,0.146 1.945,-1.947 3.391,1.947 2.021,2.596 c 0,0 0.723,1.729 0,1.729 -0.723,0 -4.615,-1.875 -4.615,-1.875 l -1.656,1.658 h -3.678 l -1.152,2.957 0.723,2.883 2.309,2.308 1.729,3.75 -2.309,1.875 -1.875,-2.308 -2.449,-2.452 -4.326,-4.037 v -2.74 l -2.885,-2.883 -2.736,-2.74 -1.875,-2.447 -2.311,-4.475 -2.885,-2.737 -3.027,-1.729 -2.885,-0.865 -2.451,-5.188 -5.336,-7.354 -4.326,-4.326 -3.604,-3.604 -3.174,-4.325 -2.021,-3.315 -5.479,-2.45 -4.326,-1.873 -2.598,-0.289 -3.461,-4.76 v -2.162 l -3.75,-3.75 -2.021,-3.748 -4.037,-1.299 1.012,-2.886 v -2.162 l 3.314,1.011 0.576,-2.886 -1.945,-1.944 v -1.082 l -1.908,-1.911 z m 121.851,75.272 0.576,3.027 0.289,2.885 1.154,0.433 v -2.308 l 0.861,-1.875 v -2.599 z m 9.949,1.731 v 1.3 l 1.875,1.01 v -2.164 z m -5.912,-11.681 1.729,0.721 0.578,-2.307 -0.865,-4.613 1.588,-1.586 -0.287,-3.315 -2.453,-0.724 -0.723,3.75 0.939,0.938 -0.793,2.813 z m 4.326,-19.035 -0.725,0.724 0.578,2.45 1.154,-1.729 z m 1.731,-8.797 0.721,-3.749 -1.008,-2.307 0.576,-2.452 1.945,-1.947 0.504,2.669 -0.432,2.739 0.576,3.173 -1.012,2.308 z m 1.877,-32.158 v 3.174 2.598 h 2.021 l -0.578,-2.451 v -1.587 -1.874 z m -83.928,-186.165 v 3.172 l -0.287,2.884 1.729,1.154 1.15,1.441 0.146,2.596 2.309,0.864 -0.576,-2.595 -1.012,-2.021 1.012,-3.317 v -4.037 l -2.738,-1.154 z m 56.094,15.142 -2.02,0.721 1.012,2.163 h 3.461 3.461 l 2.162,-2.163 -2.74,-0.864 -2.736,1.153 z m 9.953,106.277 -0.865,2.598 -1.367,1.367 1.588,1.586 0.938,1.947 -0.289,2.596 -0.145,3.315 1.514,1.515 1.66,-0.938 v -3.461 l 1.514,-1.516 -1.227,-2.954 -2.021,-2.021 0.146,-2.596 z m 6.201,22.494 v 2.163 l 1.439,0.722 1.012,-1.297 z m -3.892,-136.272 -1.875,1.298 1.01,1.009 1.369,-1.37 1.369,-1.369 z M 911.237,41.065 l -1.32,-0.496 -1.16,1.212 -2.535,1.324 -2.066,2.067 0.191,3.556 -0.883,0.883 0.438,2.866 1.654,2.426 1.709,3.97 2.645,0.552 1.791,-1.792 1.354,-2.453 -1.488,-1.6 2.205,-3.197 -0.387,-3.474 v -4.135 z m 32.506,361.5 -1.439,1.586 v 2.02 2.162 l 2.451,-1.01 1.299,1.299 1.439,-1.439 0.576,-2.887 -1.586,-2.308 z m -165.055,-256.572 -0.305,-1.21 2.27,1.06 1.137,-1.135 1.59,-1.589 2.344,-2.344 1.438,1.739 h 0.76 l 1.891,-1.89 1.74,-2.042 3.326,-1.513 2.42,1.815 -1.359,3.781 v 2.116 l -1.59,1.588 -2.494,1.136 -2.723,1.059 h -2.727 l -2.041,2.042 -3.252,-1.135 -1.664,-2.42 z m -5.598,3.177 h -4.84 l -1.59,1.588 -2.494,1.738 -1.814,-1.814 -4.387,1.361 0.303,2.723 1.135,1.135 1.664,1.663 1.135,1.134 -1.662,1.362 -2.271,-1.966 -1.209,1.209 -1.664,-1.664 -3.781,0.757 -1.664,-0.907 -0.756,1.966 1.209,1.209 -2.27,1.212 v 2.872 l 1.813,1.815 -0.451,2.118 h 1.662 l 2.117,2.118 -0.604,2.42 2.723,1.36 3.631,0.151 1.514,1.512 h 2.725 l 3.176,-0.906 v -2.421 l -1.965,-1.814 1.059,-1.059 1.59,1.588 2.799,-5.066 2.646,-2.646 1.137,1.134 2.42,-2.42 0.756,-2.27 -2.725,-0.907 -1.813,1.815 -2.271,-1.664 -2.723,-1.664 -2.725,-1.966 0.906,-1.966 1.438,-1.438 1.135,3.856 1.738,1.74 2.947,0.528 1.814,-0.756 h 1.514 l 1.514,-1.512 -0.758,-3.177 h -2.42 l 0.605,-2.723 v -1.966 z m 2.571,26.62 -1.361,1.211 1.061,3.024 1.74,1.74 1.438,-2.799 v -2.269 l -1.061,-1.059 z m 6.201,2.722 -1.736,1.74 0.98,2.344 1.664,1.664 -1.061,2.42 0.91,0.908 1.357,-2.874 3.479,-0.757 3.023,-1.211 4.082,-2.42 -2.117,-3.932 h -2.873 l -4.084,-1.362 -1.891,1.74 z m -34.031,-6.504 -1.361,-1.361 -2.42,-0.151 1.59,1.589 0.98,3.554 h 1.967 v -1.966 z m -75.627,58.837 -2.801,2.798 v 1.89 h 2.348 l 0.756,1.815 1.967,-0.907 2.271,-2.269 v -3.63 h -2.873 z m 98.611,-106.481 -0.908,1.664 0.984,0.983 1.135,-0.983 z m -8.471,66.097 -2.875,-0.605 -0.906,0.756 1.664,0.756 2.117,1.664 0.906,-1.21 z"
         id="path18" />
    </g>
    <g
       id="g45"
       class="d02 district map-element">
      <path
         inkscape:connector-curvature="0"
         d="m 266.682,221.234 0.417,-3.083 5.083,-5.083 h 8.5 l 2.666,-4.667 v -9 l 5.334,-2.667 7,-3.5 4.833,1.834 h 2.834 l 2.333,2.333 2.862,-1.995 -0.696,3.495 2.833,-0.334 4,0.167 v 2.667 l 0.834,3 -1.834,-1.167 -1.916,-1.917 -1.75,1.75 0.833,3.167 v 3.167 l 2.834,1.5 2.166,2.166 v 3.5 l 2.417,1.167 v 3.917 l 2.75,2.75 1.333,4.666 v 4.834 l -0.833,4.166 1,2.334 0.083,5.083 2.917,2.917 -0.167,3.666 -0.667,6 -2.916,5.084 -4.417,4.416 h -4.667 l -5.166,1 -4.5,-1.666 -4.917,-2.75 -3.083,-3.084 v -4.5 l -3.167,-3.166 -1.5,-3.5 -1.167,-3.334 -2.166,-3.666 -1.167,-6.167 -2.333,-1 0.75,-3.75 1.916,-1.916 -2.333,-2.334 -1.083,2.917 -1.584,1.583 0.667,3.667 0.083,4.25 -1.833,1.833 2.417,2.417 -0.667,3.667 -2.333,5.166 -4.083,1.25 -3.25,3.25 -1.251,5.917 -3.083,3.083 2.5,7.834 -2.416,4.25 3.416,3.417 3.667,3.666 4.167,-3 0.833,-4.166 -2.167,-2.167 0.334,-3.667 v -2.833 l 2.833,-3 h 2.833 l 1,7.5 0.917,4.917 2.917,2.916 1.833,3.834 4.75,1.416 1.417,-1.416 -1.167,-2.834 2.833,-2.333 0.167,-5.833 5.167,0.833 4.833,-1.833 4,2.166 4.5,-1.416 h 3.083 l 1.917,1.916 2.833,4.334 -2.333,2.333 v 3.667 l 2.083,-2.584 2.917,-2.916 4,-0.833 3.333,-4.834 v -4.166 l 1.333,-2.834 4.333,-2.166 v -2.666 l 4.167,-2.5 v -4.167 l -0.667,-4 h 2.833 l 0.917,2.083 3.75,3.75 2.833,4.334 v 5.832 l -1,3.001 -1.5,1.499 -2.5,-2.5 -3.5,-0.832 -5.333,1.832 v 4.334 l 1.333,4 v 3.334 l 3.833,1 3.667,1.666 4.167,-2 v -3 l 4.333,-1 4.168,2 -0.667,-2.666 6.5,1.166 3.5,-0.666 6.333,0.832 h 3.667 l 1.833,3.334 h 1.667 v -3 l 5.333,-1.666 h 2.835 l 1.167,4.332 h -3.167 l -1,3 -2.5,0.834 3.833,3.5 h 2.667 l 5,-2.166 4.75,0.916 5.167,5.167 1.75,-1.75 h 3.5 l 4.417,-1.417 1.75,1.75 -0.5,2.334 -2.667,1.833 v 2.833 l 3.167,2.667 0.25,-3.083 1.417,-1.417 3.333,0.833 v -2.666 l 3.167,-0.5 0.667,-4 -0.5,-4.834 3,-1.5 2.583,-0.75 3.083,3.084 1.333,-1.334 3.417,4.25 3.917,3.917 3.167,3.167 0.774,1.582 -1.358,2 -1.625,1.625 -1,1 1.625,1.542 0.333,1.25 1.25,0.417 v 2.583 3.083 h -1.584 l -0.75,1.833 -1.334,0.667 -0.5,3.083 3.334,1.666 v 2.167 l -3.084,1.25 2.584,2.583 -4,2 -3,3 h -3.166 l -1.167,3.667 h -5.667 l -5.333,1.167 -5.333,3 v 3.667 l -4.334,-0.167 -3.209,0.5 -1.75,2 -3.125,1.625 -3.125,3.125 -2.875,0.375 v -2.625 l -2.125,-0.75 -2.562,2.563 -3.438,3.438 -1.5,2.875 0.625,3.625 -4,2.5 -0.375,3 -3.375,2.125 -2.25,4.25 0.625,2.875 -1.375,2.625 v 2.25 l -4.125,4.125 -0.562,2.938 -1.563,1.563 -0.875,2.375 -5.75,-0.875 -4.25,-1.625 -3.75,-2 -3.875,-2.625 h -1.75 l -1,2.125 -1.687,0.563 -1.188,-1.188 -1.687,-0.563 -1.688,1.688 -3,-1.125 -2.625,1.375 -2.375,-2.375 -3.625,-1.625 -2.125,0.75 -1.75,-2.125 0.375,-2.125 -0.875,-1.375 -2.125,-0.75 -1.625,1.625 -1.187,-1.188 -1.188,1.188 -3.375,-1.875 -1.562,3.063 1.687,1.688 v 2 l -2.546,1.006 h -2.704 l -1.535,1.535 -2.483,0.292 -0.805,-1.827 -1.39,-1.389 -2.631,2.483 -1.9,-1.899 -3.068,-1.462 -2.924,0.729 -1.171,3.361 -1.899,2.34 -1.169,-1.169 1.021,-2.34 -0.729,-2.636 v -2.48 l -1.753,-1.755 v -2.481 l 2.19,-2.193 v -2.191 l 3.218,-0.73 v -3.358 l 2.047,-2.047 -0.311,-2.533 -1.5,-0.75 0.584,-1.832 -1.625,-1.625 -0.625,-0.625 -0.917,-1.5 -1.25,-0.418 -1.792,1.541 -3.663,3.664 -2.266,2.269 -3.157,-1.404 -1.754,1.606 3.654,3.804 -2.338,1.168 v 3.068 l -1.099,1.098 -3.874,-3.437 -2.046,3.216 -3.653,-0.877 -1.534,1.534 -2.268,-3.288 -3.36,-1.898 -2.778,-1.314 -1.169,-3.216 -3.29,-3.289 -4.313,-0.806 -2.19,-4.68 -3.362,1.606 -3.655,-1.606 -4.093,1.016 -3.652,1.604 -3.948,-3.944 v -3.51 -3.068 l -3.144,-3.145 -1.606,1.605 -4.166,-2.852 -1.754,-1.755 -3.07,0.293 -2.054,0.373 v -3.343 l 0.86,-2.803 -2.369,-0.754 -2.695,0.539 -3.449,-1.617 -2.803,-1.077 -2.265,-1.079 -1.399,-1.398 -0.431,1.4 h -2.156 l -1.617,-1.939 h -2.371 l -0.593,-2.425 -1.349,-1.348 -1.833,-0.916 h -2.209 l -1.777,1.778 h -2.802 l -1.402,1.403 -2.318,-0.271 -1.886,-1.887 H 179.2 l -1.941,-1.186 -2.533,0.161 -1.455,-1.454 h -2.91 l -1.51,-1.51 -1.001,-2.166 -2.583,2.167 -0.25,2.083 -1.5,1.5 -0.333,3.5 -0.917,2 -1,1.75 h -2.333 l -1,2.833 -2.25,-2.75 -2.834,0.251 v -5.668 l -2.833,-2.666 -3.167,-0.834 1,-2.5 0.834,-2.666 -2.334,-2.334 -1.5,-3.332 0.5,-2.334 3.167,-3.166 1.833,-3.334 -0.833,-3 2.667,-0.666 4,-2.5 v -3.5 l 1.666,-2 4.167,-0.167 1.833,-2.167 0.167,-2.5 3.5,-1.333 2.833,-3.833 3.834,0.166 3.333,-2 4.5,1 0.667,-2.5 1.5,-1.5 2.833,1.333 2.333,2.5 3.667,1.167 1.333,3 1.334,3.334 2,-2 -0.334,-4.834 -3,-2.667 v -5.666 l 2.667,-0.667 0.833,-0.833 -3.666,-1.5 -2.167,-2.5 h 15.258 l 22.075,-0.167 7,-2.5 v -4.333 l 1.167,-11 h 4.667 l 4,-3.167 v -4.333 l 3,-1.167 v -5.667 l 2.666,-0.166 5.834,-4.667 2.833,1.333 z m 10.145,41.223 -0.605,0.907 1.061,1.362 1.359,-1.362 z m 140.965,2.117 h -1.664 l -1.814,-2.722 -1.059,0.604 -3.176,-3.024 -2.424,-2.571 0.908,-2.723 2.42,-0.756 0.907,-1.513 -1.664,-1.36 0.151,-3.631 -1.062,-0.303 -1.06,-2.723 -2.269,-0.151 -1.814,-2.57 0.604,-3.328 2.421,-3.327 2.875,0.302 0.905,1.06 1.061,0.454 0.454,-1.968 3.479,-1.058 2.723,-2.874 -1.813,-1.966 2.421,-1.514 2.722,1.06 0.757,-2.27 v -2.269 h 3.479 l 1.664,1.664 1.739,-1.739 0.378,-1.588 3.779,-0.757 -1.283,-1.285 -3.254,-1.135 v -1.209 l 3.781,-1.061 3.935,-1.058 1.966,-1.966 h 2.571 v -1.815 l 3.631,-0.151 -1.968,-1.967 3.178,-0.15 1.21,1.21 -0.151,-3.025 1.514,-1.513 -1.663,-1.966 1.061,-1.664 1.813,1.814 h 2.271 v -2.269 l 3.326,1.21 1.664,-1.815 1.664,-1.966 h 2.116 l 3.631,-1.663 2.569,0.907 h 3.781 l 2.496,-2.496 2.948,0.228 1.358,1.967 h 3.179 l 1.514,1.512 2.723,-0.757 h 3.781 l 2.496,-2.495 2.948,-1.588 3.933,-1.513 h 3.63 l 2.118,3.327 v 3.631 l -3.177,2.874 -2.874,2.722 -3.78,0.303 -4.538,2.117 -4.084,-1.512 -1.966,1.966 -4.688,-0.151 h -6.052 l -2.27,2.42 h -4.688 l -3.479,1.967 1.06,2.42 -2.421,0.906 -2.873,-0.302 h -2.569 l -0.305,1.664 -2.723,-0.757 v 2.723 l -2.724,1.966 -2.271,1.664 v -2.57 l -1.813,1.664 0.454,3.024 h -1.813 l -1.286,-1.286 v 1.438 2.269 l -1.322,-1.323 -1.701,1.7 -1.438,1.438 H 437 l -1.515,1.966 -1.966,3.327 h -3.177 l -2.571,2.118 v 2.874 l -2.57,1.059 -0.906,3.025 -2.117,2.117 v 3.781 l -1.062,2.723 1.361,3.932 -1.21,3.933 1.664,2.572 0.756,2.722 -0.907,0.908 -2.568,1.21 v -1.967 z m 96.349,-148.673 -1.25,0.375 1,1.375 v 1.25 h 1.75 v -2.375 z m -0.375,10.625 -0.875,1.375 -3.25,0.625 -2.125,1.125 1.625,0.75 -0.75,1.75 1.375,0.375 h 2.75 l 2.188,-2.188 1.625,-1.625 -0.563,-2.438 z m -10.375,-2.25 -0.688,0.688 1.313,1.313 2.375,-0.875 v -2 h -1.375 z m -1.812,3.937 -1.813,-2.063 -1.375,1.375 -1,2 v 2.5 l 2.125,0.375 0.5,1.5 2.625,-0.625 1.688,-1.688 1.25,-1.25 0.688,-2.063 h -1.875 z m -7.438,8.688 -0.813,0.813 v 1.563 h 1.688 l 0.625,-2 z m -3.5,-6.375 -0.875,-0.875 h -2.75 v 1.875 l -1.5,1.5 0.875,0.875 3,-0.625 1.125,1.125 2.625,-0.625 0.75,-1.75 1.875,0.625 -1,-2.25 -1.688,-1.688 z m 13.875,-20.875 -0.75,1.5 1.313,1.313 1.25,-1.25 z m -2.75,3.5 h -2 v 2.25 l 2.125,2.125 v 1.75 l 1.875,-0.875 -1.125,-2.375 z m -12.5,6.5 h -1.75 l -0.375,0.375 1.438,1.438 z m 1.5,2.875 -1.188,1.188 1.188,1.313 1.375,-0.125 z m 1.125,-5.5 v 1.625 h 1.75 l -0.375,-1.875 z m 2.438,4.062 v 1.438 h 1.438 l -1.125,-1.125 z m 1.437,3.313 0.625,0.625 1.125,-1.125 z m 1.75,-6.625 v 1.75 l 1.5,0.125 v -1.875 z m -2.25,-3.5 0.875,1.625 0.813,-0.813 -0.813,-0.813 z m -16.125,10.5 -0.938,0.938 1.625,1.625 1.813,0.063 v -3 l -1.25,-1.625 z m 4.125,-2 0.625,1.75 h 1.25 v -1.5 z m -7,-10 -1.25,1.25 v 1.375 l -1.438,1.438 -2.563,-1.813 -2.125,1.125 v 1.5 l -2.625,-1.875 -2,0.75 0.625,3 1.875,-0.625 v 2 l 2,0.5 1.813,-1.813 2.563,-1.063 2.125,0.625 h 3.125 l 2.25,-2.25 -2.125,-2.125 1.438,-1.438 -2.438,-1.438 z m -7.125,-3.125 h -2.75 l -1.625,-1.625 -1.125,2.25 1.438,1.438 0.563,1.688 3.25,-1.125 1.125,1.125 2.125,-0.875 0.875,0.875 v -1.875 l -1.438,-1.438 h -1.313 z m 2.438,13.187 h -1.063 l 0.375,1.563 2.25,0.125 z m 0.437,3.313 -1.125,1.125 0.875,0.875 2.125,0.5 -1.375,-1.375 z m 9.125,-16.125 v 1.625 h 1.25 l 1.25,-1.25 z m -396.585,159.892 2.596,0.582 2.223,-0.636 0.847,-1.641 2.011,0.316 1.882,1.881 0.077,2.567 1.535,0.477 0.318,2.012 2.382,0.423 0.529,-1.906 -1.296,-1.296 1.109,-1.111 0.717,0.715 2.274,1.903 v 2.86 l -0.316,2.488 1.321,2.17 1.324,0.898 0.476,3.23 -1.162,2.434 -5.56,2.807 -8.417,-10.005 z m 343.824,3.58 -2.42,1.211 -1.814,0.604 0.454,3.933 0.302,2.118 1.664,0.453 0.604,3.176 3.177,0.304 1.059,-2.571 -1.513,-2.571 0.151,-2.874 z m -53.543,-13.158 -3.327,0.906 -1.967,2.572 -1.514,1.966 1.06,2.873 2.421,0.909 2.269,0.906 2.118,-1.512 2.57,0.452 1.361,-3.175 -2.117,-2.723 -0.151,-2.27 z"
         id="path20" />
    </g>
    <g
       id="g66"
       class="d03 district map-element">
      <path
         inkscape:connector-curvature="0"
         d="m 56.218,444.757 h 3.236 l 1.545,1.09 2.012,0.273 v -1.135 l 1.752,-0.228 1.069,1.696 h 4.373 l 0.12,-1.468 1.57,0.337 v 2.796 l 1.791,1.759 -1.068,2.575 2.073,2.167 v 3.8 l 0.552,1.508 -0.619,1.758 -1.064,1.495 1.515,1.54 0.716,1.529 2.586,0.855 2.828,0.44 3.351,5.478 -1.931,0.315 -1.651,1.726 -3.455,-1.162 -2.607,-2.324 -0.503,-1.443 -0.299,-1.365 -1.743,-1.243 -3.394,0.786 -2.262,-1.131 -2.764,-1.539 -3.99,0.691 -2.905,-0.549 -1.32,-2.293 -0.91,-3.486 2.136,-0.094 2.465,-3.031 0.596,-3.141 -0.346,-1.885 v -2.259 l -1.256,-2.168 -2.105,-1.571 z"
         id="path8" />
      <path
         style="stroke-width:0.76014107"
         d="m 133.78906,350.03516 -1.76562,1.59179 h -3.61914 l -0.92578,3.04688 -2.96094,2.95898 h -3.26563 l -1.14843,1.14649 h -1.76563 l -0.88281,-1.23438 h -2.19531 v -1.59961 l -0.97461,-0.97265 -1.01368,1.26562 -0.88671,2.1543 -4.68555,0.63281 0.125,2.02734 -1.77344,-0.2539 -1.77344,1.77344 0.50586,2.78711 -1.90039,1.14062 -2.78515,2.78711 -3.041019,-3.29297 -2.027344,-2.1543 -2.154297,0.88477 -2.40625,-1.01172 -2.787109,1.26563 -1.900391,2.02734 1.519531,0.50781 1.394531,1.39258 2.152344,0.50781 1.521485,1.14063 -0.507813,2.27929 -2.152344,-0.88671 -2.914062,-0.38086 -1.773438,-0.75977 -1.140625,1.14063 -1.519531,-1.39258 -1.394531,-1.01367 -1.519531,-0.25391 -0.507813,1.64648 1.013672,1.90039 -0.380859,3.16797 -1.900391,-0.63476 h -1.519531 l -2.914063,0.1289 -2.152343,0.88477 -0.886719,1.90039 -1.900391,-0.63281 -2.027344,-2.53321 -1.521484,0.25196 -1.392578,1.39453 0.632812,2.53516 -0.759765,2.27929 1.013672,2.02735 1.519531,1.39257 -0.253906,3.80079 1.267578,1.90039 1.013672,2.15429 0.507812,4.3086 -0.380859,5.82617 1.013672,3.04101 1.646484,-0.2539 1.267578,1.77344 1.013672,1.26757 1.390625,0.25391 v -0.002 l 1.535156,-1.53516 1.808594,-0.28125 1.261719,-1.26172 h 1.253906 l 0.714844,1.54297 1.091797,1.61914 h 2.470703 l 1.90039,-2.38086 0.66211,-1.37695 -0.472657,-1.8086 1.332032,-0.38086 2.089844,-1.61132 -1.240235,-1.23828 1.050781,-1.65821 -0.761718,-1.52148 -0.949219,-0.81055 1.041015,-1.52148 v -1.51953 l 0.951172,-1.08789 0.996094,0.32812 0.669922,1.04883 1.755859,-0.23828 1.119141,-1.11719 h 1.398438 l 0.902343,0.97266 1.429688,0.71289 0.570312,1.6582 h 1.277349 l 1.04882,-0.38086 0.57032,1.66406 1.01953,1.02735 2.25781,-0.41016 1.42773,0.60938 0.25196,1.83007 1.20117,1.40039 0.3789,1.58008 1.20899,1.20117 0.82031,2.2793 -0.88867,1.71094 0.95117,1.77929 1.29883,1.29102 0.98047,1.30078 v 1.51953 l 1.36133,1.36133 0.34961,1.93945 1.07812,1.58008 v 2.91016 l 1.71094,1.25 0.86914,1.30664 1.36719,0.48828 0.62304,1.61133 -0.16797,2.21484 1.55274,0.41211 2.66016,-0.75976 h 2.40625 l 2.15429,-2.53321 1.77344,-0.75976 V 423.25 l 2.28125,0.38281 0.88672,0.88477 1.90039,0.50976 c 0,0 -0.25409,0.94922 0.94922,0.94922 1.2033,0 2.72461,-0.18945 2.72461,-0.18945 h 1.13867 1.39453 1.77344 l 2.15234,-0.25391 1.26758,-1.26562 -1.58398,-1.58594 -1.07618,-2.21484 -0.2539,-2.28125 1.90039,0.25195 1.26758,1.39453 1.33007,-1.33008 v -3.48633 l -0.69726,-4.30468 0.63476,-3.29492 -1.52148,-1.52149 -2.40625,-2.2793 -1.64844,-1.01171 1.64844,-1.6504 0.75977,-3.29101 -1.83789,-1.83984 -0.82227,-2.47071 2.02734,-1.39453 1.64844,-1.64844 2.2793,0.12891 2.15429,-0.88867 v -2.28125 l 1.64649,-1.64649 1.96484,-1.96289 h 2.46875 l 1.64649,-1.20312 0.88867,-2.02735 -0.0918,-2.53906 -1.54297,-1.54492 -0.35547,-1.89844 h -1.81054 l -1.18946,-1.1914 -0.52929,-2.55664 -1.81055,-0.66211 -0.92578,0.92578 -1.67774,-1.58789 2.29493,-2.20703 -0.35352,-3.53125 -3,-2.91211 -2.56055,0.0859 v -1.50195 l -1.67773,-0.88281 -2.82422,-0.35352 -0.79492,-3.00195 0.17578,-2.20703 h -2.56055 l -1.94336,-1.0586 -0.4414,-1.41406 z"
         id="path6"
         transform="matrix(1.3155452,0,0,1.3155452,0,-16.912993)"
         inkscape:connector-curvature="0" />
    </g>
    <g
       id="g42"
       class="d04 district map-element">
      <path
         d="m 89.990234,392.23438 -0.951172,1.08789 v 1.51953 l -1.041015,1.52148 0.949219,0.81055 0.761718,1.52148 -1.050781,1.65821 1.240235,1.23828 -2.089844,1.61132 -1.332032,0.38086 0.472657,1.8086 -0.66211,1.37695 -1.90039,2.38086 h -2.470703 l -1.091797,-1.61914 -0.714844,-1.54297 H 78.855469 L 77.59375,407.25 75.785156,407.53125 74.25,409.06641 v 0.002 h 0.002 l 0.632813,2.52539 1.90039,2.91406 0.002,0.01 0.884766,3.0293 2.787109,1.90039 1.900391,0.88867 1.140625,2.91211 2.154297,1.77539 -0.150391,0.74609 -0.357422,1.78711 0.0059,0.006 1.767578,1.64062 v 0.008 l 0.507812,4.04687 1.773438,1.77344 2.787109,0.37891 1.583985,1.58593 0.443359,1.33008 2.154297,0.25195 0.632812,2.2793 1.900391,2.0293 -0.002,0.004 -0.757813,2.14844 -1.140625,1.90039 0.0039,0.006 1.769531,2.27539 1.013672,2.66016 v 0.008 1.63867 l 0.002,0.002 2.025396,1.39062 0.2207,2.63281 0.0332,0.40821 0.002,0.006 1.39062,4.17773 0.38086,2.4082 2.78711,0.63282 2.91406,-1.01367 2.02735,0.88671 3.03906,-1.39453 -0.0488,-0.80078 v -0.002 l -0.20312,-3.25195 0.28711,-1.875 0.0371,-0.23438 0.18164,-1.17773 -0.75977,-4.30469 0.75977,4.29687 -0.75977,-4.30664 v -3.53515 -0.0137 l 2.78711,-4.56054 1.26367,-1.13672 0.004,-0.004 v -0.8789 -0.006 l 1.45508,-1.45703 0.57031,-2.21875 0.46094,-1.74805 0.17382,-0.6582 -0.75976,-2.40625 -1.33008,-1.33008 v -2.08985 l 1.29687,-1.30078 0.16797,-2.21484 -0.62304,-1.61133 -1.36719,-0.48828 -0.86914,-1.30664 -1.71094,-1.25 v -2.91016 l -1.07812,-1.58008 -0.34961,-1.93945 -1.36133,-1.36133 v -1.51953 l -0.98047,-1.30078 -1.29883,-1.29102 -0.95117,-1.77929 0.88867,-1.71094 -0.82031,-2.2793 -1.20899,-1.20117 -0.3789,-1.58008 -1.20117,-1.40039 -0.25196,-1.83007 -1.42773,-0.60938 -2.25781,0.41016 -1.01953,-1.02735 -0.57032,-1.66406 -1.04882,0.38086 h -1.277352 l -0.570312,-1.6582 -1.429688,-0.71289 -0.902343,-0.97266 H 94.53125 l -1.119141,1.11719 -1.755859,0.23828 -0.669922,-1.04883 z"
         transform="matrix(1.3155452,0,0,1.3155452,0,-16.912993)"
         id="path102"
         inkscape:connector-curvature="0" />
    </g>
  </g>
</svg>
